<svg width="30" height="30" viewBox="0 0 30 30" fill="none" xmlns="http://www.w3.org/2000/svg">
<path d="M16.5727 3.01406C16.8928 3.28422 17.1399 3.59875 17.325 3.975C17.325 3.99975 17.325 4.0245 17.325 4.05C17.36 4.05696 17.36 4.05696 17.3958 4.06406C18.6814 4.35094 19.8814 5.07565 20.8419 5.96147C20.9157 6.02897 20.9912 6.09303 21.068 6.15703C21.7955 6.79344 22.3525 7.62552 22.8 8.475C22.8137 8.50065 22.8273 8.52631 22.8414 8.55274C23.2861 9.39931 23.5707 10.3417 23.7 11.2875C23.7102 11.3604 23.7102 11.3604 23.7206 11.4348C23.7929 12.0181 23.7733 12.5992 23.759 13.1852C23.7533 13.421 23.7495 13.6569 23.7467 13.8928C23.7463 13.9276 23.7459 13.9623 23.7454 13.998C23.7438 14.1408 23.7422 14.2836 23.7407 14.4264C23.7363 14.8265 23.7302 15.2264 23.7186 15.6264C23.6277 17.9374 23.6277 17.9374 24.7683 19.8789C24.9536 20.0793 25.0938 20.3015 25.2375 20.5329C25.2825 20.6016 25.3276 20.6701 25.373 20.7386C25.3939 20.7704 25.4148 20.8023 25.4364 20.8351C25.5033 20.9371 25.5704 21.039 25.6375 21.1408C25.6816 21.2077 25.7255 21.2746 25.7695 21.3414C25.7889 21.3709 25.8083 21.4004 25.8283 21.4308C26.1354 21.8986 26.2956 22.2287 26.25 22.8C26.1855 23.059 26.0126 23.3348 25.7977 23.4952C25.7154 23.5509 25.7154 23.5509 25.65 23.6625C25.6129 23.6625 25.5758 23.6625 25.5375 23.6625C25.4844 23.6801 25.4316 23.6988 25.379 23.7179C25.1175 23.7982 24.8574 23.7899 24.5864 23.7878C24.529 23.7877 24.4717 23.7878 24.4144 23.7878C24.2598 23.7878 24.1053 23.7872 23.9508 23.7864C23.7889 23.7857 23.627 23.7856 23.4651 23.7855C23.1589 23.7851 22.8528 23.7842 22.5467 23.7831C22.198 23.7818 21.8493 23.7812 21.5006 23.7807C20.7837 23.7795 20.0669 23.7775 19.35 23.775C19.3425 23.8136 19.335 23.8523 19.3272 23.8921C19.3172 23.9432 19.3071 23.9944 19.297 24.0456C19.2896 24.0837 19.2896 24.0837 19.2821 24.1226C19.0539 25.2771 18.2995 26.207 17.3515 26.8617C17.25 26.925 17.25 26.925 17.175 26.925C17.1626 26.9621 17.1503 26.9992 17.1375 27.0375C17.075 27.0375 17.0125 27.0375 16.95 27.0375C16.9376 27.0746 16.9253 27.1117 16.9125 27.15C16.8754 27.15 16.8383 27.15 16.8 27.15C16.7299 27.1767 16.6605 27.2051 16.5914 27.2344C16.1431 27.411 15.6626 27.4917 15.1875 27.5625C15.1875 27.5749 15.1875 27.5872 15.1875 27.6C15.1274 27.602 15.0672 27.6035 15.007 27.6047C14.9735 27.6056 14.94 27.6064 14.9055 27.6073C14.8125 27.6 14.8125 27.6 14.7 27.525C14.6212 27.5058 14.6212 27.5058 14.5342 27.4957C14.4857 27.489 14.4857 27.489 14.4363 27.4821C14.3859 27.4755 14.3859 27.4755 14.3344 27.4687C13.9612 27.4191 13.9612 27.4191 13.8018 27.3715C13.6894 27.3321 13.6894 27.3321 13.575 27.3375C13.5379 27.3127 13.5008 27.288 13.4625 27.2625C13.406 27.234 13.3489 27.2067 13.2914 27.1805C13.262 27.1668 13.2325 27.1531 13.2022 27.139C13.1767 27.1303 13.1512 27.1215 13.125 27.1125C13.1003 27.1249 13.0755 27.1372 13.05 27.15C13.0307 27.1289 13.0113 27.1077 12.9914 27.086C12.8816 26.9827 12.7644 26.9048 12.6375 26.8242C12.6144 26.8091 12.5913 26.794 12.5675 26.7784C12.4537 26.7055 12.3558 26.6559 12.225 26.625C12.1897 26.5721 12.1547 26.5189 12.1217 26.4646C12.0677 26.3898 12.008 26.339 11.9367 26.2805C11.7692 26.1409 11.641 25.978 11.5081 25.806C11.4848 25.7793 11.4615 25.7525 11.4375 25.725C11.4128 25.725 11.388 25.725 11.3625 25.725C11.3378 25.626 11.313 25.527 11.2875 25.425C11.2628 25.425 11.238 25.425 11.2125 25.425C10.7562 24.4404 10.7562 24.4404 10.6838 23.9871C10.6774 23.9472 10.671 23.9073 10.6643 23.8662C10.6596 23.8361 10.6549 23.806 10.65 23.775C10.6204 23.7751 10.5908 23.7752 10.5603 23.7753C9.8388 23.7778 9.11733 23.7797 8.39586 23.7808C8.04696 23.7814 7.69806 23.7822 7.34916 23.7835C7.04495 23.7846 6.74075 23.7853 6.43654 23.7856C6.27556 23.7857 6.11458 23.7861 5.9536 23.7869C5.80186 23.7877 5.65012 23.7879 5.49837 23.7877C5.4429 23.7877 5.38742 23.788 5.33195 23.7884C4.8657 23.7919 4.49222 23.7401 4.125 23.4375C4.05786 23.3653 3.9985 23.2901 3.9375 23.2125C3.91275 23.2125 3.888 23.2125 3.8625 23.2125C3.85786 23.1862 3.85322 23.1599 3.84844 23.1328C3.82767 23.0246 3.82767 23.0246 3.78691 22.9241C3.7085 22.6605 3.69592 22.2889 3.80156 22.0312C4.101 21.5013 4.449 20.9992 4.79063 20.4961C4.83434 20.4316 4.87804 20.3671 4.92173 20.3027C4.94266 20.2718 4.9636 20.241 4.98517 20.2093C5.03127 20.1409 5.07701 20.0724 5.12225 20.0035C5.24718 19.8144 5.37482 19.6321 5.51593 19.455C6.14633 18.6598 6.30803 18.0375 6.27625 17.0345C6.27176 16.8628 6.27221 16.691 6.27208 16.5193C6.27113 16.1952 6.26608 15.8714 6.25938 15.5474C6.25124 15.1449 6.24821 14.7424 6.24536 14.3399C6.24434 14.1973 6.2433 14.0548 6.24221 13.9122C6.24194 13.8776 6.24168 13.843 6.24141 13.8073C6.23948 13.5725 6.23606 13.3377 6.23195 13.103C6.21877 12.3144 6.22626 11.5456 6.39053 10.7706C6.40991 10.6642 6.41698 10.5701 6.4125 10.4625C6.43725 10.4625 6.462 10.4625 6.4875 10.4625C6.49308 10.4006 6.49308 10.4006 6.49878 10.3375C6.64604 9.18051 7.3971 7.93396 8.12344 7.04926C8.21462 6.93817 8.21462 6.93817 8.2938 6.81489C8.36845 6.70362 8.44525 6.64532 8.55 6.5625C8.59294 6.51472 8.63506 6.46621 8.67656 6.41718C8.77915 6.29698 8.88564 6.19366 9.0085 6.09448C9.08021 6.03467 9.08021 6.03467 9.16055 5.95048C9.96034 5.16218 11.018 4.60437 12.0633 4.22109C12.0983 4.20825 12.1332 4.19541 12.1693 4.18219C12.3374 4.12217 12.4967 4.07099 12.675 4.05C12.6838 4.01867 12.6925 3.98735 12.7015 3.95507C12.7585 3.80225 12.8349 3.67833 12.9258 3.54375C12.9427 3.51873 12.9596 3.49371 12.977 3.46794C13.0962 3.29569 13.2115 3.154 13.3875 3.0375C13.4183 3.01618 13.4491 2.99486 13.4808 2.9729C14.4654 2.31695 15.612 2.30779 16.5727 3.01406ZM14.4 6.3C14.3876 6.3 14.3753 6.3 14.3625 6.3C14.3125 6.30603 14.2625 6.31232 14.2125 6.31875C14.0667 6.3375 14.0667 6.3375 14.025 6.3375C13.9879 6.34987 13.9508 6.36225 13.9125 6.375C13.9001 6.375 13.8878 6.375 13.875 6.375C13.8441 6.38118 13.8131 6.38737 13.7813 6.39375C13.6875 6.4125 13.6875 6.4125 13.65 6.4125C13.5521 6.43527 13.4546 6.45874 13.357 6.48281C13.3298 6.48933 13.3026 6.49586 13.2746 6.50258C13.1407 6.53567 13.0213 6.56966 12.9 6.6375C12.8876 6.6375 12.8753 6.6375 12.8625 6.6375C12.8242 6.67422 12.7867 6.71171 12.75 6.75C12.7376 6.72525 12.7253 6.7005 12.7125 6.675C12.0915 6.95583 12.0915 6.95583 11.5125 7.3125C11.4574 7.35172 11.4574 7.35172 11.4012 7.39174C11.1491 7.57601 10.914 7.77277 10.6875 7.9875C10.652 8.02056 10.6165 8.05362 10.58 8.08769C10.1071 8.53737 9.74725 9.05872 9.45 9.6375C9.43686 9.66266 9.42372 9.68783 9.41018 9.71376C8.94074 10.6217 8.76967 11.5832 8.76909 12.5976C8.76891 12.6658 8.76872 12.734 8.76851 12.8021C8.76809 12.9484 8.76777 13.0947 8.76753 13.241C8.76713 13.4725 8.76637 13.704 8.76554 13.9356C8.76322 14.5938 8.76119 15.252 8.75995 15.9102C8.75926 16.2741 8.75817 16.638 8.75665 17.0019C8.75586 17.1943 8.75528 17.3866 8.75519 17.5789C8.75511 17.7598 8.75452 17.9407 8.75353 18.1216C8.75326 18.1878 8.75318 18.254 8.75331 18.3201C8.75476 19.2156 8.34411 19.761 7.85859 20.482C7.79075 20.5829 7.72295 20.6838 7.65525 20.7848C7.61339 20.8472 7.57145 20.9095 7.52942 20.9718C7.51075 20.9996 7.49208 21.0275 7.47284 21.0561C7.44804 21.0929 7.44804 21.0929 7.42275 21.1305C7.38421 21.1816 7.38421 21.1816 7.3875 21.225C12.4118 21.225 17.436 21.225 22.6125 21.225C22.4714 20.9667 22.4714 20.9667 22.3166 20.7203C22.2976 20.6921 22.2785 20.664 22.259 20.6349C22.2391 20.6057 22.2192 20.5766 22.1987 20.5465C22.1555 20.4825 22.1124 20.4185 22.0693 20.3544C22.0021 20.2551 21.9349 20.1559 21.8676 20.0568C21.8019 19.96 21.7366 19.863 21.6713 19.766C21.6514 19.7368 21.6314 19.7076 21.6108 19.6776C21.3787 19.3316 21.257 19.0324 21.2568 18.6129C21.2566 18.57 21.2566 18.57 21.2563 18.5262C21.2559 18.4305 21.2556 18.3347 21.2554 18.239C21.2551 18.1703 21.2548 18.1016 21.2545 18.033C21.2538 17.8852 21.2532 17.7374 21.2527 17.5896C21.252 17.3561 21.2509 17.1226 21.2499 16.8892C21.2474 16.3516 21.2453 15.8141 21.2433 15.2765C21.2414 14.7835 21.2394 14.2904 21.2371 13.7974C21.236 13.5651 21.2351 13.3327 21.2344 13.1004C21.2339 12.9562 21.2332 12.8121 21.2325 12.668C21.2323 12.6008 21.232 12.5337 21.2319 12.4666C21.2316 12.3754 21.2312 12.2842 21.2307 12.193C21.2307 12.1661 21.2307 12.1392 21.2306 12.1115C21.2402 11.989 21.2402 11.989 21.1875 11.8875C21.1887 11.8246 21.1887 11.8246 21.19 11.7605C21.1922 11.5615 21.153 11.3757 21.1102 11.182C21.1018 11.1443 21.0935 11.1065 21.0849 11.0676C20.9259 10.38 20.6395 9.75874 20.2875 9.15C20.2628 9.15 20.238 9.15 20.2125 9.15C20.2086 9.12834 20.2048 9.10668 20.2008 9.08437C20.1581 8.94477 20.076 8.8628 19.9711 8.76328C19.8915 8.67985 19.8497 8.623 19.7977 8.52421C19.7236 8.39756 19.7012 8.37968 19.575 8.325C19.5639 8.30252 19.5528 8.28004 19.5413 8.25688C19.495 8.16513 19.4415 8.10655 19.3688 8.03437C19.3459 8.01136 19.3231 7.98835 19.2996 7.96464C19.2414 7.90446 19.2414 7.90446 19.1625 7.9125C19.1548 7.89161 19.147 7.87073 19.1391 7.84921C19.0479 7.69594 18.9182 7.59357 18.75 7.5375C18.7 7.4875 18.65 7.4375 18.6 7.3875C18.5753 7.3875 18.5505 7.3875 18.525 7.3875C18.5043 7.36608 18.4836 7.34467 18.4623 7.3226C18.3543 7.21734 18.2341 7.14805 18.1031 7.07578C18.0637 7.05387 18.0637 7.05387 18.0235 7.03151C17.2796 6.61399 17.2796 6.61399 16.4625 6.4875C16.4501 6.46275 16.4378 6.438 16.425 6.4125C16.3181 6.43882 16.3181 6.43882 16.275 6.4875C16.275 6.45037 16.275 6.41325 16.275 6.375C16.2131 6.38737 16.1513 6.39975 16.0875 6.4125C16.0751 6.38775 16.0628 6.363 16.05 6.3375C16.0129 6.34987 15.9758 6.36225 15.9375 6.375C15.9004 6.38737 15.8633 6.39975 15.825 6.4125C15.825 6.37537 15.825 6.33825 15.825 6.3C15.7948 6.3 15.7647 6.3 15.7336 6.3C15.6 6.3 15.6 6.3 15.5159 6.28156C15.4147 6.26291 15.323 6.25765 15.2203 6.25751C15.1845 6.25747 15.1488 6.25742 15.1119 6.25737C15.0565 6.25759 15.0565 6.25759 15 6.25781C14.9631 6.25766 14.9261 6.25752 14.8881 6.25737C14.8344 6.25744 14.8344 6.25744 14.7797 6.25751C14.7473 6.25756 14.7149 6.2576 14.6815 6.25764C14.5845 6.26265 14.4948 6.27921 14.4 6.3ZM13.275 23.775C13.426 24.2281 13.7088 24.5677 14.1375 24.7828C14.6356 25.0192 15.1507 25.0577 15.6762 24.8723C15.965 24.7496 16.2297 24.5884 16.425 24.3375C16.425 24.3127 16.425 24.288 16.425 24.2625C16.4498 24.2625 16.4745 24.2625 16.5 24.2625C16.5501 24.202 16.5501 24.202 16.5961 24.1242C16.6124 24.0985 16.6287 24.0729 16.6455 24.0464C16.6987 23.9493 16.6987 23.9493 16.725 23.775C15.5865 23.775 14.448 23.775 13.275 23.775ZM14.8875 27.525C14.8875 27.5374 14.8875 27.5497 14.8875 27.5625C14.9618 27.5625 15.036 27.5625 15.1125 27.5625C15.1125 27.5501 15.1125 27.5377 15.1125 27.525C15.0383 27.525 14.964 27.525 14.8875 27.525Z" fill="#0C0C0C"/>
<path d="M7.4625 21.15C12.4373 21.15 17.412 21.15 22.5375 21.15C22.5375 21.1624 22.5375 21.1747 22.5375 21.1875C17.5628 21.1875 12.588 21.1875 7.4625 21.1875C7.4625 21.1751 7.4625 21.1627 7.4625 21.15Z" fill="#0D0D0D"/>
<path d="M21.15 12.0375C21.1624 12.0375 21.1748 12.0375 21.1875 12.0375C21.1875 14.3021 21.1875 16.5668 21.1875 18.9C21.1751 18.9 21.1628 18.9 21.15 18.9C21.15 16.6354 21.15 14.3708 21.15 12.0375Z" fill="#0D0D0D"/>
<path d="M8.8125 12.1125C8.82487 12.1125 8.83725 12.1125 8.85 12.1125C8.85 14.3276 8.85 16.5428 8.85 18.825C8.83762 18.825 8.82525 18.825 8.8125 18.825C8.8125 16.6099 8.8125 14.3948 8.8125 12.1125Z" fill="#0D0D0D"/>
<path d="M23.8125 12.2625C23.8249 12.2625 23.8372 12.2625 23.85 12.2625C23.85 14.2796 23.85 16.2967 23.85 18.375C23.8376 18.375 23.8252 18.375 23.8125 18.375C23.8125 16.3579 23.8125 14.3407 23.8125 12.2625Z" fill="#0D0D0D"/>
<path d="M6.15 12.2625C6.16237 12.2625 6.17475 12.2625 6.1875 12.2625C6.1875 14.2796 6.1875 16.2967 6.1875 18.375C6.17512 18.375 6.16275 18.375 6.15 18.375C6.15 16.3579 6.15 14.3407 6.15 12.2625Z" fill="#0D0D0D"/>
<path d="M19.3875 23.8125C21.2809 23.8125 23.1742 23.8125 25.125 23.8125C25.125 23.8249 25.125 23.8372 25.125 23.85C23.2316 23.85 21.3382 23.85 19.3875 23.85C19.3875 23.8376 19.3875 23.8252 19.3875 23.8125Z" fill="#0D0D0D"/>
<path d="M4.875 23.8125C6.76837 23.8125 8.66175 23.8125 10.6125 23.8125C10.6125 23.8249 10.6125 23.8372 10.6125 23.85C8.71912 23.85 6.82575 23.85 4.875 23.85C4.875 23.8376 4.875 23.8252 4.875 23.8125Z" fill="#0D0D0D"/>
<path d="M13.3125 23.8125C14.4263 23.8125 15.54 23.8125 16.6875 23.8125C16.6875 23.8249 16.6875 23.8372 16.6875 23.85C15.5985 23.85 14.5095 23.85 13.3875 23.85C13.3751 23.8747 13.3628 23.8995 13.35 23.925C13.3376 23.8879 13.3253 23.8507 13.3125 23.8125Z" fill="#0D0D0D"/>
<path d="M14.775 24.9C14.9359 24.9 15.0968 24.9 15.2625 24.9C15.2625 24.9124 15.2625 24.9247 15.2625 24.9375C15.1016 24.9375 14.9408 24.9375 14.775 24.9375C14.775 24.9251 14.775 24.9127 14.775 24.9Z" fill="#0D0D0D"/>
<path d="M14.775 2.39999C14.9235 2.39999 15.072 2.39999 15.225 2.39999C15.225 2.41237 15.225 2.42474 15.225 2.43749C15.0765 2.43749 14.928 2.43749 14.775 2.43749C14.775 2.42512 14.775 2.41274 14.775 2.39999Z" fill="#0D0D0D"/>
<path d="M14.8125 6.3C14.9363 6.3 15.06 6.3 15.1875 6.3C15.1875 6.31238 15.1875 6.32475 15.1875 6.3375C15.0638 6.3375 14.94 6.3375 14.8125 6.3375C14.8125 6.32513 14.8125 6.31275 14.8125 6.3Z" fill="#0D0D0D"/>
<path d="M23.775 11.625C23.7874 11.625 23.7998 11.625 23.8125 11.625C23.8125 11.6992 23.8125 11.7735 23.8125 11.85C23.8001 11.85 23.7878 11.85 23.775 11.85C23.775 11.7757 23.775 11.7015 23.775 11.625Z" fill="#0D0D0D"/>
<path d="M6.1875 11.625C6.19987 11.625 6.21225 11.625 6.225 11.625C6.225 11.6992 6.225 11.7735 6.225 11.85C6.21262 11.85 6.20025 11.85 6.1875 11.85C6.1875 11.7757 6.1875 11.7015 6.1875 11.625Z" fill="#0D0D0D"/>
<path d="M15.45 27.525C15.5119 27.525 15.5738 27.525 15.6375 27.525C15.6375 27.5374 15.6375 27.5497 15.6375 27.5625C15.5756 27.5625 15.5138 27.5625 15.45 27.5625C15.45 27.5501 15.45 27.5377 15.45 27.525Z" fill="#0D0D0D"/>
<path d="M14.3625 27.525C14.4244 27.525 14.4862 27.525 14.55 27.525C14.55 27.5374 14.55 27.5497 14.55 27.5625C14.4881 27.5625 14.4262 27.5625 14.3625 27.5625C14.3625 27.5501 14.3625 27.5377 14.3625 27.525Z" fill="#0D0D0D"/>
<path d="M21.1125 11.7C21.1249 11.7 21.1373 11.7 21.15 11.7C21.15 11.7619 21.15 11.8237 21.15 11.8875C21.1376 11.8875 21.1253 11.8875 21.1125 11.8875C21.1125 11.8256 21.1125 11.7637 21.1125 11.7Z" fill="#0D0D0D"/>
<path d="M23.7375 11.2875C23.7499 11.2875 23.7623 11.2875 23.775 11.2875C23.775 11.3494 23.775 11.4113 23.775 11.475C23.7626 11.475 23.7503 11.475 23.7375 11.475C23.7375 11.4131 23.7375 11.3513 23.7375 11.2875Z" fill="#0D0D0D"/>
<path d="M6.225 11.2875C6.23738 11.2875 6.24975 11.2875 6.2625 11.2875C6.2625 11.3494 6.2625 11.4113 6.2625 11.475C6.25013 11.475 6.23775 11.475 6.225 11.475C6.225 11.4131 6.225 11.3513 6.225 11.2875Z" fill="#0D0D0D"/>
<path d="M15.7125 27.4875C15.8625 27.525 15.8625 27.525 15.8625 27.525L15.7125 27.4875Z" fill="#0D0D0D"/>
<path d="M14.1375 27.4875C14.2875 27.525 14.2875 27.525 14.2875 27.525L14.1375 27.4875Z" fill="#0D0D0D"/>
<path d="M26.2875 22.65C26.325 22.8 26.325 22.8 26.325 22.8L26.2875 22.65Z" fill="#0D0D0D"/>
<path d="M3.675 22.65C3.7125 22.8 3.7125 22.8 3.7125 22.8L3.675 22.65Z" fill="#0D0D0D"/>
<path d="M26.2875 22.2C26.325 22.35 26.325 22.35 26.325 22.35L26.2875 22.2Z" fill="#0D0D0D"/>
<path d="M3.675 22.2C3.7125 22.35 3.7125 22.35 3.7125 22.35L3.675 22.2Z" fill="#0D0D0D"/>
<path d="M21.075 11.4375C21.1125 11.5875 21.1125 11.5875 21.1125 11.5875L21.075 11.4375Z" fill="#0D0D0D"/>
<path d="M8.8875 11.4375C8.925 11.5875 8.925 11.5875 8.925 11.5875L8.8875 11.4375Z" fill="#0D0D0D"/>
<path d="M23.7 11.0625C23.7375 11.2125 23.7375 11.2125 23.7375 11.2125L23.7 11.0625Z" fill="#0D0D0D"/>
<path d="M15.3375 24.8625C15.45 24.9 15.45 24.9 15.45 24.9L15.3375 24.8625Z" fill="#0D0D0D"/>
<path d="M25.2375 23.775C25.35 23.8125 25.35 23.8125 25.35 23.8125L25.2375 23.775Z" fill="#0D0D0D"/>
<path d="M4.65 23.775C4.7625 23.8125 4.7625 23.8125 4.7625 23.8125L4.65 23.775Z" fill="#0D0D0D"/>
<path d="M13.4625 6.4875C13.575 6.525 13.575 6.525 13.575 6.525L13.4625 6.4875Z" fill="#0D0D0D"/>
<path d="M15.375 2.4375C15.4875 2.475 15.4875 2.475 15.4875 2.475L15.375 2.4375Z" fill="#0D0D0D"/>
<path d="M14.5125 2.4375C14.625 2.475 14.625 2.475 14.625 2.475L14.5125 2.4375Z" fill="#0D0D0D"/>
<path d="M15.9375 27.45C16.0125 27.4875 16.0125 27.4875 16.0125 27.4875L15.9375 27.45Z" fill="#0D0D0D"/>
<path d="M13.9875 27.45C14.0625 27.4875 14.0625 27.4875 14.0625 27.4875L13.9875 27.45Z" fill="#0D0D0D"/>
<path d="M16.0875 27.4125C16.1625 27.45 16.1625 27.45 16.1625 27.45L16.0875 27.4125Z" fill="#0D0D0D"/>
<path d="M13.8375 27.4125C13.9125 27.45 13.9125 27.45 13.9125 27.45L13.8375 27.4125Z" fill="#0D0D0D"/>
<path d="M16.2375 27.375C16.3125 27.4125 16.3125 27.4125 16.3125 27.4125L16.2375 27.375Z" fill="#0D0D0D"/>
<path d="M16.35 27.3375C16.425 27.375 16.425 27.375 16.425 27.375L16.35 27.3375Z" fill="#0D0D0D"/>
<path d="M14.5875 24.8625C14.6625 24.9 14.6625 24.9 14.6625 24.9L14.5875 24.8625Z" fill="#0D0D0D"/>
<path d="M15.4875 24.825C15.5625 24.8625 15.5625 24.8625 15.5625 24.8625L15.4875 24.825Z" fill="#0D0D0D"/>
<path d="M14.4375 24.825C14.5125 24.8625 14.5125 24.8625 14.5125 24.8625L14.4375 24.825Z" fill="#0D0D0D"/>
<path d="M14.325 24.7875C14.4 24.825 14.4 24.825 14.4 24.825L14.325 24.7875Z" fill="#0D0D0D"/>
<path d="M15.7875 24.7125C15.8625 24.75 15.8625 24.75 15.8625 24.75L15.7875 24.7125Z" fill="#0D0D0D"/>
<path d="M25.3875 23.7375C25.4625 23.775 25.4625 23.775 25.4625 23.775L25.3875 23.7375Z" fill="#0D0D0D"/>
<path d="M4.5375 23.7375C4.6125 23.775 4.6125 23.775 4.6125 23.775L4.5375 23.7375Z" fill="#0D0D0D"/>
<path d="M25.725 23.55C25.8 23.5875 25.8 23.5875 25.8 23.5875L25.725 23.55Z" fill="#0D0D0D"/>
<path d="M11.625 7.27499C11.7 7.31249 11.7 7.31249 11.7 7.31249L11.625 7.27499Z" fill="#0D0D0D"/>
<path d="M17.3625 6.78751C17.4375 6.82501 17.4375 6.82501 17.4375 6.82501L17.3625 6.78751Z" fill="#0D0D0D"/>
<path d="M12.5625 6.78751C12.6375 6.82501 12.6375 6.82501 12.6375 6.82501L12.5625 6.78751Z" fill="#0D0D0D"/>
<path d="M17.175 6.71249C17.25 6.74999 17.25 6.74999 17.25 6.74999L17.175 6.71249Z" fill="#0D0D0D"/>
<path d="M17.0625 6.675C17.1375 6.7125 17.1375 6.7125 17.1375 6.7125L17.0625 6.675Z" fill="#0D0D0D"/>
<path d="M12.975 6.6375C13.05 6.675 13.05 6.675 13.05 6.675L12.975 6.6375Z" fill="#0D0D0D"/>
<path d="M16.8375 6.60001C16.9125 6.63751 16.9125 6.63751 16.9125 6.63751L16.8375 6.60001Z" fill="#0D0D0D"/>
<path d="M13.0875 6.60001C13.1625 6.63751 13.1625 6.63751 13.1625 6.63751L13.0875 6.60001Z" fill="#0D0D0D"/>
<path d="M16.725 6.5625C16.8 6.6 16.8 6.6 16.8 6.6L16.725 6.5625Z" fill="#0D0D0D"/>
<path d="M13.2 6.5625C13.275 6.6 13.275 6.6 13.275 6.6L13.2 6.5625Z" fill="#0D0D0D"/>
<path d="M16.575 6.52499C16.65 6.56249 16.65 6.56249 16.65 6.56249L16.575 6.52499Z" fill="#0D0D0D"/>
<path d="M13.35 6.52499C13.425 6.56249 13.425 6.56249 13.425 6.56249L13.35 6.52499Z" fill="#0D0D0D"/>
<path d="M18.5625 4.425C18.6375 4.4625 18.6375 4.4625 18.6375 4.4625L18.5625 4.425Z" fill="#0D0D0D"/>
<path d="M11.3625 4.425C11.4375 4.4625 11.4375 4.4625 11.4375 4.4625L11.3625 4.425Z" fill="#0D0D0D"/>
<path d="M18.3 4.3125C18.375 4.35 18.375 4.35 18.375 4.35L18.3 4.3125Z" fill="#0D0D0D"/>
<path d="M11.625 4.3125C11.7 4.35 11.7 4.35 11.7 4.35L11.625 4.3125Z" fill="#0D0D0D"/>
<path d="M18.1125 4.2375C18.1875 4.275 18.1875 4.275 18.1875 4.275L18.1125 4.2375Z" fill="#0D0D0D"/>
<path d="M11.8125 4.2375C11.8875 4.275 11.8875 4.275 11.8875 4.275L11.8125 4.2375Z" fill="#0D0D0D"/>
<path d="M17.8125 4.125C17.8875 4.1625 17.8875 4.1625 17.8875 4.1625L17.8125 4.125Z" fill="#0D0D0D"/>
<path d="M12.1125 4.125C12.1875 4.1625 12.1875 4.1625 12.1875 4.1625L12.1125 4.125Z" fill="#0D0D0D"/>
<path d="M17.7 4.08749C17.775 4.12499 17.775 4.12499 17.775 4.12499L17.7 4.08749Z" fill="#0D0D0D"/>
<path d="M12.225 4.08749C12.3 4.12499 12.3 4.12499 12.3 4.12499L12.225 4.08749Z" fill="#0D0D0D"/>
<path d="M17.5875 4.05C17.6625 4.0875 17.6625 4.0875 17.6625 4.0875L17.5875 4.05Z" fill="#0D0D0D"/>
<path d="M12.3375 4.05C12.4125 4.0875 12.4125 4.0875 12.4125 4.0875L12.3375 4.05Z" fill="#0D0D0D"/>
<path d="M12.4875 4.0125C12.5625 4.05 12.5625 4.05 12.5625 4.05L12.4875 4.0125Z" fill="#0D0D0D"/>
<path d="M15.825 2.55C15.9 2.5875 15.9 2.5875 15.9 2.5875L15.825 2.55Z" fill="#0D0D0D"/>
<path d="M15.7125 2.5125C15.7875 2.55 15.7875 2.55 15.7875 2.55L15.7125 2.5125Z" fill="#0D0D0D"/>
<path d="M14.2125 2.5125C14.2875 2.55 14.2875 2.55 14.2875 2.55L14.2125 2.5125Z" fill="#0D0D0D"/>
<path d="M15.5625 2.47501C15.6375 2.51251 15.6375 2.51251 15.6375 2.51251L15.5625 2.47501Z" fill="#0D0D0D"/>
<path d="M14.3625 2.47501C14.4375 2.51251 14.4375 2.51251 14.4375 2.51251L14.3625 2.47501Z" fill="#0D0D0D"/>
</svg>
