<svg width="48" height="61" viewBox="0 0 48 61" fill="none" xmlns="http://www.w3.org/2000/svg">
<path d="M3.55554 12.3902L7.48717 51.6667H41.6923L44.4444 12.3902H38.9402C38.9402 3.35659 29.5043 1 23.2137 1C16.9231 1 9.05982 4.14212 9.05982 12.3902H3.55554Z" fill="#D9D9D9" stroke="#9E9E9E"/>
<path d="M7.11111 15.8355L10.5657 51.6667L38.202 51.6667L40.8889 15.8355H36.3419C36.3419 7.59431 28.547 5.44444 23.3504 5.44444C18.1538 5.44445 11.6581 8.31094 11.6581 15.8355H7.11111Z" fill="#D9D9D9" stroke="#9E9E9E"/>
<rect x="1.5" y="51.5" width="46" height="9" rx="1.5" fill="#D9D9D9" stroke="#9E9E9E"/>
<path d="M7 46.5L2 51.5H7.5L7 46.5Z" fill="#D9D9D9" stroke="#9E9E9E"/>
<path d="M42.2222 46.3333L46.6667 51.2222H41.7778L42.2222 46.3333Z" fill="#D9D9D9" stroke="#9E9E9E"/>
<path d="M22.5222 28.6567H20.2622L18.4222 25.2267L17.9922 24.9667L18.2622 24.4267H18.7022C19.0289 24.4267 19.2856 24.3167 19.4722 24.0967C19.6656 23.8767 19.7622 23.57 19.7622 23.1767C19.7622 22.73 19.6422 22.3667 19.4022 22.0867C19.1689 21.8 18.8256 21.6567 18.3722 21.6567C18.0856 21.6567 17.8222 21.74 17.5822 21.9067V27.6167L18.7122 27.9267L18.3522 28.6567H14.6622V28.0167L15.6022 27.2067V21.8167L14.4822 21.5167L14.8422 20.7967H16.6522C17.2189 20.7967 17.7822 20.7767 18.3422 20.7367C18.7422 20.71 19.0389 20.6967 19.2322 20.6967C19.7589 20.6967 20.2256 20.79 20.6322 20.9767C21.0456 21.1567 21.3622 21.4067 21.5822 21.7267C21.8089 22.04 21.9222 22.3933 21.9222 22.7867C21.9222 23.2467 21.7222 23.6767 21.3222 24.0767C20.9222 24.47 20.4256 24.7733 19.8322 24.9867L20.6722 25.2167L21.8922 27.4767L22.8922 27.9267L22.5222 28.6567ZM26.946 28.6667H23.256V28.0267L24.196 27.2167V21.8367L23.076 21.5267L23.436 20.8067H27.126V21.4367L26.176 22.2567V27.6267L27.306 27.9367L26.946 28.6667ZM32.0921 24.7467C32.4254 24.7467 32.6854 24.6233 32.8721 24.3767C33.0654 24.13 33.1621 23.79 33.1621 23.3567C33.1621 22.8567 33.0421 22.45 32.8021 22.1367C32.5621 21.8233 32.2087 21.6667 31.7421 21.6667C31.4487 21.6667 31.1754 21.7567 30.9221 21.9367V27.5767L32.7121 27.9367L32.3521 28.6667H28.0021V28.0267L28.9421 27.2867V21.8667L27.8221 21.5267L28.1821 20.8067H29.9921C30.5721 20.8067 31.1421 20.7867 31.7021 20.7467C32.1021 20.72 32.4021 20.7067 32.6021 20.7067C33.1354 20.7067 33.6087 20.81 34.0221 21.0167C34.4354 21.2167 34.7554 21.4967 34.9821 21.8567C35.2087 22.21 35.3221 22.6067 35.3221 23.0467C35.3221 23.5267 35.1321 23.98 34.7521 24.4067C34.3787 24.8267 33.9054 25.16 33.3321 25.4067C32.7654 25.6467 32.2121 25.7533 31.6721 25.7267L31.2521 25.4667L31.6121 24.7467H32.0921Z" fill="#9E9E9E"/>
</svg>
